P2
31 16
255
0 0 0 0 0 0 0 0 0 0 0 0 0 0 0 255 0 0 0 0 0 0 0 0 0 0 0 0 0 0 0 
0 0 0 0 0 0 0 0 0 0 0 0 0 0 255 255 255 0 0 0 0 0 0 0 0 0 0 0 0 0 0 
0 0 0 0 0 0 0 0 0 0 0 0 0 255 255 0 0 255 0 0 0 0 0 0 0 0 0 0 0 0 0 
0 0 0 0 0 0 0 0 0 0 0 0 255 255 0 255 255 255 255 0 0 0 0 0 0 0 0 0 0 0 0 
0 0 0 0 0 0 0 0 0 0 0 255 255 0 0 255 0 0 0 255 0 0 0 0 0 0 0 0 0 0 0 
0 0 0 0 0 0 0 0 0 0 255 255 0 255 255 255 255 0 255 255 255 0 0 0 0 0 0 0 0 0 0 
0 0 0 0 0 0 0 0 0 255 255 0 0 255 0 0 0 0 255 0 0 255 0 0 0 0 0 0 0 0 0 
0 0 0 0 0 0 0 0 255 255 0 255 255 255 255 0 0 255 255 255 255 255 255 0 0 0 0 0 0 0 0 
0 0 0 0 0 0 0 255 255 0 0 255 0 0 0 255 255 255 0 0 0 0 0 255 0 0 0 0 0 0 0 
0 0 0 0 0 0 255 255 0 255 255 255 255 0 255 255 0 0 255 0 0 0 255 255 255 0 0 0 0 0 0 
0 0 0 0 0 255 255 0 0 255 0 0 0 0 255 0 255 255 255 255 0 255 255 0 0 255 0 0 0 0 0 
0 0 0 0 255 255 0 255 255 255 255 0 0 255 255 0 255 0 0 0 0 255 0 255 255 255 255 0 0 0 0 
0 0 0 255 255 0 0 255 0 0 0 255 255 255 0 0 255 255 0 0 255 255 0 255 0 0 0 255 0 0 0 
0 0 255 255 0 255 255 255 255 0 255 255 0 0 255 255 255 0 255 255 255 0 0 255 255 0 255 255 255 0 0 
0 255 255 0 0 255 0 0 0 0 255 0 255 255 255 0 0 0 255 0 0 255 255 255 0 0 255 0 0 255 0 
255 255 0 255 255 255 255 0 0 255 255 0 255 0 0 255 0 255 255 255 255 255 0 0 255 255 255 255 255 255 255 
